PathFileType	4	(X/Y/Z)	s11c0202.trc
DataRate	CameraRate	NumFrames	NumMarkers	Units	OrigDataRate	OrigDataStartFrame	OrigNumFrames
200	200	4	48	mm	200	1500	2000
Frame#	Time	racr			lacr			c7			jug			rlel			rdr			llel			ldr			s2			lic			ric			lasi			rasi			rpsi			lpsi			rgt			lgt			rth1			rth2			rth3			rth4			rlfc			rmfc			rsh1			rsh2			rsh3			rsh4			rlmal			rcal			rtoe			rmt5			lth1			lth2			lth4			lth3			llfc			lmfc			llmal			lcal			lmt5			lsh1			lsh2			lsh3			lsh4			ltoe			SBIKE			LBIKE			RBIKE			
		X1	Y1	Z1	X2	Y2	Z2	X3	Y3	Z3	X4	Y4	Z4	X5	Y5	Z5	X6	Y6	Z6	X7	Y7	Z7	X8	Y8	Z8	X9	Y9	Z9	X10	Y10	Z10	X11	Y11	Z11	X12	Y12	Z12	X13	Y13	Z13	X14	Y14	Z14	X15	Y15	Z15	X16	Y16	Z16	X17	Y17	Z17	X18	Y18	Z18	X19	Y19	Z19	X20	Y20	Z20	X21	Y21	Z21	X22	Y22	Z22	X23	Y23	Z23	X24	Y24	Z24	X25	Y25	Z25	X26	Y26	Z26	X27	Y27	Z27	X28	Y28	Z28	X29	Y29	Z29	X30	Y30	Z30	X31	Y31	Z31	X32	Y32	Z32	X33	Y33	Z33	X34	Y34	Z34	X35	Y35	Z35	X36	Y36	Z36	X37	Y37	Z37	X38	Y38	Z38	X39	Y39	Z39	X40	Y40	Z40	X41	Y41	Z41	X42	Y42	Z42	X43	Y43	Z43	X44	Y44	Z44	X45	Y45	Z45	X46	Y46	Z46	X47	Y47	Z47	X48	Y48	Z48	
1500	7.5000	551.976204	1313.875289	-139.709286	472.494336	1337.079596	-444.794586	455.327408	1448.366577	-270.842525	470.159626	1267.715391	-296.277773	571.136051	1105.228933	56.972908	763.098267	967.053462	-71.880385	485.531743	1076.281403	-597.961595	766.341350	959.936228	-481.697658	-102.891673	1220.057807	-206.678749	76.130571	1269.828498	-438.988974	141.047919	1194.489514	-37.095291	110.571536	1195.783963	-402.273533	161.126550	1135.056774	-74.123532	-44.999164	1286.985995	-146.297077	-66.949101	1291.055098	-238.686714	55.292407	1044.644862	-24.400765	18.329680	1152.696608	-452.279374	137.072539	925.928789	-20.756955	207.057620	869.619248	-29.899215	238.561864	790.478248	-51.336353	236.180843	892.156354	-35.882723	299.739577	705.829116	-72.441162	308.169167	694.365258	-198.478976	220.957980	570.861408	-61.200568	195.315729	488.669447	-82.326908	133.367832	427.587053	-84.865719	218.269151	479.632223	-112.600270	56.578819	311.817867	-99.332666	-7.763172	315.647860	-148.199744	247.964049	185.035929	-147.476573	174.228493	183.570922	-77.529896	161.311767	1101.633771	-470.041538	246.608131	1095.746637	-467.613269	259.642997	1127.857369	-452.741238	321.060177	1046.074601	-475.306239	453.977220	981.282044	-457.292327	469.226449	969.870479	-326.120408	269.077927	589.148587	-435.478338	204.650140	564.999749	-398.017746	381.176836	451.605795	-458.357186	405.210941	872.823763	-475.266107	394.150734	787.843912	-464.573229	341.525520	716.846463	-458.470343	424.417304	778.219528	-442.252107	478.607333	449.449302	-389.415994	-215.202061	952.883909	-254.311616	-17.794322	81.496842	-460.885294	-17.733074	80.987423	-61.948217	
1501	7.5050	552.532121	1309.966172	-140.823915	471.297474	1335.816449	-444.819225	454.958672	1447.598383	-270.879472	468.524016	1267.154482	-297.197096	571.247379	1104.289632	58.220521	762.703798	966.940626	-70.706827	484.488520	1076.236041	-598.195494	765.731307	958.973467	-483.890339	-103.064599	1220.521155	-205.625802	74.600502	1269.577834	-438.296515	140.616590	1195.118263	-35.123013	109.480926	1194.099422	-402.937651	159.921954	1134.599571	-72.898907	-45.507540	1287.300824	-145.869411	-66.984331	1291.195756	-237.898532	55.661286	1044.696145	-24.255204	16.252452	1151.327372	-451.103582	139.635189	927.357681	-20.934510	210.738615	872.194136	-30.112389	243.883650	793.726282	-51.410806	239.402979	895.245949	-35.990290	306.659331	710.017803	-72.025995	314.926586	699.103948	-198.661153	224.636618	576.681240	-61.322151	197.255619	495.168018	-82.351783	133.992888	435.406549	-85.067111	220.109205	485.421522	-112.566916	54.478761	322.089958	-99.439940	-9.381436	328.046708	-148.620685	241.130191	187.631772	-147.285456	167.368056	189.281767	-77.508042	159.595632	1097.445570	-469.713918	244.605458	1089.866277	-467.432855	258.263618	1121.852204	-452.964495	318.198714	1038.915769	-475.028270	451.001468	972.066997	-456.820226	466.184800	959.641815	-326.021783	268.649422	576.521198	-437.976427	204.417956	548.584689	-399.475074	387.182971	445.142668	-458.903440	402.744264	862.124759	-476.743717	391.932161	777.267143	-465.454296	339.558971	706.043127	-459.494320	422.115623	767.781939	-442.862088	484.263135	448.967849	-389.152738	-215.184411	952.912062	-254.307076	-17.788774	81.469090	-460.888577	-17.733521	80.983963	-61.960549	
1502	7.5100	553.013273	1306.071524	-142.026031	470.008890	1334.959790	-445.129156	454.534654	1446.912410	-270.613724	466.860994	1266.632994	-297.622725	571.071869	1103.293336	59.365478	762.250734	966.766787	-69.559582	484.024129	1076.559012	-598.273939	765.118609	957.722605	-486.087078	-103.241028	1220.449742	-204.812013	73.291396	1268.985780	-437.627519	139.582364	1195.633346	-33.616464	108.624613	1192.125188	-403.642737	158.657303	1133.918059	-71.374736	-46.095152	1287.399117	-145.401716	-67.016464	1291.113559	-237.238427	56.343363	1044.451753	-24.505064	14.416235	1149.488454	-449.772996	141.610201	928.037124	-20.474457	214.595187	874.791267	-30.459383	249.333258	797.035396	-51.560793	242.834127	898.449612	-36.241311	313.780467	714.290061	-71.713191	321.743865	703.931011	-198.615331	228.532678	582.673879	-61.439018	199.482078	501.658694	-82.365217	134.844841	443.451047	-85.252116	222.324743	491.490156	-112.460705	52.975812	332.281942	-99.449426	-9.586691	340.921691	-148.528375	234.738303	190.730204	-147.374593	160.979584	195.387770	-77.649645	157.911803	1092.534179	-469.257787	242.976460	1083.454556	-467.143335	256.945762	1115.126185	-453.231795	315.689178	1031.155908	-474.878932	446.626193	962.344147	-457.761517	463.073061	948.779986	-325.990095	268.013375	562.741886	-439.609089	204.271519	531.419108	-400.782849	392.863724	438.512848	-459.177463	399.677569	850.354600	-477.934637	389.028740	765.625217	-465.743122	337.016218	694.351446	-460.158063	419.314792	756.304437	-443.399824	489.091182	447.795202	-388.491730	-215.218190	952.842030	-254.296563	-17.786149	81.435325	-460.929775	-17.727628	80.971946	-61.962923	
1503	7.5150	553.120649	1302.671105	-142.848287	468.730517	1334.761915	-445.624351	454.140160	1446.590228	-270.448040	464.665949	1266.864640	-297.883205	570.503284	1102.423562	60.350069	761.692790	966.622733	-68.553858	484.082722	1077.101448	-598.251505	765.128924	956.667967	-487.400431	-103.300275	1220.097890	-204.081957	72.129979	1268.000333	-436.840925	138.415859	1196.268480	-32.235348	107.972367	1189.868286	-403.909928	157.243165	1133.220676	-69.886754	-46.672175	1287.257274	-145.082326	-67.121218	1290.639030	-236.507205	56.915484	1044.551651	-24.598319	13.341446	1147.612515	-448.806285	144.350746	929.218025	-20.901401	218.558343	877.442117	-30.874793	254.875229	800.462650	-51.894803	246.316531	901.646901	-36.624014	320.922707	718.491034	-71.416962	328.373960	708.838733	-198.666354	232.614650	589.048670	-61.588074	202.034981	508.547375	-82.327396	136.296787	451.481395	-85.469189	224.882788	497.669676	-112.288059	52.070907	342.711163	-99.496096	-9.686809	353.950362	-148.638999	228.498426	194.011459	-147.625475	155.063397	201.707428	-77.852625	156.376030	1087.192023	-468.760182	241.321970	1076.439455	-467.026635	255.969343	1108.061248	-453.655253	312.895759	1022.846281	-474.930760	443.923941	951.780315	-456.253910	459.837775	937.417369	-325.939078	267.155641	548.330059	-440.359256	204.146523	513.543260	-402.161584	398.086562	431.293379	-459.456711	396.039543	837.774691	-478.327976	385.719786	753.194301	-465.816039	334.160666	681.456102	-460.358465	416.102903	743.986743	-443.702428	493.159287	445.818258	-387.912003	-215.239653	952.814888	-254.273243	-17.816467	81.383186	-460.892131	-17.719306	80.960085	-61.957576	
